<?xml version="1.0" encoding="UTF-8"?>
<svg id="Layer_2" data-name="Layer 2" xmlns="http://www.w3.org/2000/svg" xmlns:xlink="http://www.w3.org/1999/xlink" viewBox="0 0 546.58 139.09">
  <defs>
    <style>
      .cls-1 {
        fill: #1a1a1d;
        stroke: #a66e38;
        stroke-linecap: round;
        stroke-linejoin: round;
        stroke-width: 5px;
      }

      .cls-2 {
        stroke: #ffad60;
      }

      .cls-2, .cls-3 {
        fill: none;
        stroke-miterlimit: 10;
      }

      .cls-3 {
        stroke: url(#linear-gradient);
        stroke-width: 15px;
      }
    </style>
    <linearGradient id="linear-gradient" x1="128.83" y1="122.21" x2="23.5" y2="16.88" gradientUnits="userSpaceOnUse">
      <stop offset="0" stop-color="#ffad60"/>
      <stop offset="1" stop-color="#a66e38"/>
    </linearGradient>
  </defs>
  <g id="Layer_1-2" data-name="Layer 1">
    <g>
      <g>
        <path class="cls-3" d="M100.88,7.5H51.45c-6.87,0-13.22,3.67-16.65,9.62L10.08,59.93c-3.44,5.95-3.44,13.28,0,19.23l24.72,42.81c3.44,5.95,9.78,9.62,16.65,9.62h49.44c6.87,0,13.22-3.67,16.65-9.62l24.72-42.81c3.44-5.95,3.44-13.28,0-19.23l-24.72-42.81c-3.44-5.95-9.78-9.62-16.65-9.62Z"/>
        <g>
          <line class="cls-1" x1="78.69" y1="68.04" x2="52.63" y2="111.88"/>
          <line class="cls-1" x1="78.69" y1="68.04" x2="95.38" y2="99.51"/>
        </g>
      </g>
      <g>
        <path class="cls-2" d="M201.08,89.28l-3.1,12.9h-14.79l18.23-59.6h17.11l18.23,59.6h-15.14l-3.1-12.9h-17.46Zm15.14-10.15l-6.45-26.4-6.45,26.4h12.9Z"/>
        <path class="cls-2" d="M243.73,42.58h14.1v48.42h25.8l-1.38,11.18h-38.53V42.58Z"/>
        <path class="cls-2" d="M332.49,52.9h-12.3v38.87h12.3v10.41h-38.7v-10.41h12.3V52.9h-12.3v-10.32h38.7v10.32Z"/>
        <path class="cls-2" d="M347.58,95.6c-4.44-5.36-6.67-13.14-6.67-23.35,0-6.59,1.2-12.24,3.61-16.94,2.41-4.7,5.72-8.26,9.93-10.66s8.93-3.61,14.15-3.61c4.07,0,7.61,.65,10.62,1.94,3.01,1.29,5.78,3.11,8.3,5.46l-7.4,7.65c-1.89-1.66-3.65-2.87-5.29-3.61-1.63-.74-3.48-1.12-5.55-1.12-4.3,0-7.68,1.71-10.15,5.12-2.47,3.41-3.7,8.7-3.7,15.87,0,7.68,.92,13.1,2.75,16.25,1.83,3.15,4.79,4.73,8.86,4.73,2.69,0,5.16-.6,7.4-1.81v-13.67h-7.48l-1.38-9.8h22.19v29.58c-6.54,4.01-13.47,6.02-20.81,6.02-8.49,0-14.95-2.68-19.39-8.04Z"/>
        <path class="cls-2" d="M404.9,54.28c.57,4.36,1.06,8.56,1.46,12.6,.4,4.04,.6,8.33,.6,12.86v22.45h-11.95V42.58h17.63l15.14,47.73c-1.38-8.83-2.06-17.14-2.06-24.94v-22.79h11.95v59.6h-17.11l-15.65-47.9Z"/>
        <path class="cls-2" d="M464.24,67.01h20.64v9.8h-20.64v15.22h24.85v10.15h-38.96V42.58h38.96l-1.46,10.06h-23.39v14.36Z"/>
        <path class="cls-2" d="M538.76,70.83c-2.15,2.72-5.03,4.8-8.64,6.23l15.57,25.11h-16l-12.9-22.79h-3.96v22.79h-14.1V42.58h18.75c8.2,0,14.33,1.49,18.4,4.47,4.07,2.98,6.11,7.54,6.11,13.67,0,4.01-1.08,7.38-3.22,10.11Zm-13.76-16.38c-1.63-1.32-4.14-1.98-7.52-1.98h-4.64v17.2h5.25c3.1,0,5.43-.72,7.01-2.15,1.58-1.43,2.37-3.7,2.37-6.79,0-2.87-.82-4.96-2.45-6.28Z"/>
      </g>
    </g>
  </g>
</svg>