<?xml version="1.0" encoding="UTF-8"?>
<svg id="Layer_2" data-name="Layer 2" xmlns="http://www.w3.org/2000/svg" xmlns:xlink="http://www.w3.org/1999/xlink" viewBox="0 0 234.72 195.83">
  <defs>
    <style>
      .cls-1 {
        fill: #1a1a1d;
        stroke: #a66e38;
        stroke-linecap: round;
        stroke-linejoin: round;
        stroke-width: 5px;
      }

      .cls-2 {
        stroke: #ffad60;
      }

      .cls-2, .cls-3 {
        fill: none;
        stroke-miterlimit: 10;
      }

      .cls-3 {
        stroke: url(#linear-gradient);
        stroke-width: 15px;
      }
    </style>
    <linearGradient id="linear-gradient" x1="162.72" y1="105.27" x2="71.78" y2="14.33" gradientUnits="userSpaceOnUse">
      <stop offset="0" stop-color="#ffad60"/>
      <stop offset="1" stop-color="#a66e38"/>
    </linearGradient>
  </defs>
  <g id="Layer_1-2" data-name="Layer 1">
    <g>
      <g>
        <path class="cls-3" d="M139.78,7.5h-45.05c-4.75,0-9.13,2.53-11.5,6.64l-22.53,39.02c-2.37,4.11-2.37,9.17,0,13.28l22.53,39.02c2.37,4.11,6.76,6.64,11.5,6.64h45.05c4.75,0,9.13-2.53,11.5-6.64l22.53-39.02c2.37-4.11,2.37-9.17,0-13.28l-22.53-39.02c-2.37-4.11-6.76-6.64-11.5-6.64Z"/>
        <g>
          <line class="cls-1" x1="119.38" y1="58.53" x2="97.41" y2="95.49"/>
          <line class="cls-1" x1="119.38" y1="58.53" x2="133.44" y2="85.06"/>
        </g>
      </g>
      <g>
        <path class="cls-2" d="M12.18,186.09l-1.99,8.3H.68l11.73-38.33h11.01l11.73,38.33h-9.73l-1.99-8.3H12.18Zm9.74-6.53l-4.15-16.98-4.15,16.98h8.3Z"/>
        <path class="cls-2" d="M39.62,156.06h9.07v31.14h16.59l-.88,7.19h-24.78v-38.33Z"/>
        <path class="cls-2" d="M96.7,162.7h-7.91v25h7.91v6.69h-24.89v-6.69h7.91v-25h-7.91v-6.64h24.89v6.64Z"/>
        <path class="cls-2" d="M106.41,190.16c-2.86-3.45-4.29-8.45-4.29-15.02,0-4.24,.77-7.87,2.32-10.9,1.55-3.02,3.68-5.31,6.39-6.86s5.74-2.32,9.1-2.32c2.62,0,4.9,.42,6.83,1.24,1.94,.83,3.71,2,5.34,3.51l-4.76,4.92c-1.22-1.07-2.35-1.84-3.4-2.32-1.05-.48-2.24-.72-3.57-.72-2.77,0-4.94,1.1-6.53,3.29-1.59,2.19-2.38,5.6-2.38,10.21,0,4.94,.59,8.43,1.77,10.45,1.18,2.03,3.08,3.04,5.7,3.04,1.73,0,3.32-.39,4.76-1.16v-8.79h-4.81l-.88-6.31h14.27v19.03c-4.2,2.58-8.67,3.87-13.39,3.87-5.46,0-9.62-1.72-12.47-5.17Z"/>
        <path class="cls-2" d="M143.27,163.58c.37,2.8,.68,5.5,.94,8.1,.26,2.6,.39,5.36,.39,8.27v14.44h-7.69v-38.33h11.34l9.74,30.7c-.88-5.68-1.33-11.03-1.33-16.04v-14.66h7.69v38.33h-11.01l-10.07-30.81Z"/>
        <path class="cls-2" d="M181.44,171.77h13.28v6.31h-13.28v9.79h15.99v6.53h-25.06v-38.33h25.06l-.94,6.47h-15.05v9.24Z"/>
        <path class="cls-2" d="M229.37,174.23c-1.38,1.75-3.24,3.09-5.56,4.01l10.01,16.15h-10.29l-8.3-14.66h-2.54v14.66h-9.07v-38.33h12.06c5.27,0,9.22,.96,11.84,2.88,2.62,1.92,3.93,4.85,3.93,8.79,0,2.58-.69,4.75-2.07,6.5Zm-8.85-10.54c-1.05-.85-2.66-1.27-4.84-1.27h-2.99v11.06h3.37c1.99,0,3.49-.46,4.51-1.38,1.01-.92,1.52-2.38,1.52-4.37,0-1.84-.53-3.19-1.58-4.04Z"/>
      </g>
    </g>
  </g>
</svg>